<svg width="31" height="32" viewBox="0 0 31 32" fill="none" xmlns="http://www.w3.org/2000/svg">
<g filter="url(#filter0_d_15_339)">
<path d="M15.5 23.5986C21.7305 23.5986 26.8438 18.4746 26.8438 12.2441C26.8438 6.02441 21.7197 0.900391 15.5 0.900391C9.26953 0.900391 4.15625 6.02441 4.15625 12.2441C4.15625 18.4746 9.28027 23.5986 15.5 23.5986ZM15.5107 6.37891C16.2412 6.37891 16.7998 6.87305 16.7998 7.58203V12.3516L16.6602 14.5859L17.498 13.4365L18.626 12.2119C18.8193 11.9756 19.1309 11.8359 19.4531 11.8359C20.1084 11.8359 20.5703 12.2871 20.5703 12.9209C20.5703 13.2539 20.4736 13.501 20.2266 13.7695L16.5635 17.583C16.2627 17.9053 15.9297 18.0664 15.5107 18.0664C15.0918 18.0664 14.7695 17.916 14.4688 17.583L10.7949 13.7695C10.5479 13.501 10.4512 13.2539 10.4512 12.9209C10.4512 12.2871 10.9131 11.8359 11.5684 11.8359C11.8906 11.8359 12.2021 11.9756 12.3955 12.2119L13.5342 13.4688L14.3506 14.5752L14.2217 12.3516V7.58203C14.2217 6.87305 14.7803 6.37891 15.5107 6.37891Z" fill="white"/>
</g>
<defs>
<filter id="filter0_d_15_339" x="0.15625" y="0.900391" width="30.6875" height="30.6982" filterUnits="userSpaceOnUse" color-interpolation-filters="sRGB">
<feFlood flood-opacity="0" result="BackgroundImageFix"/>
<feColorMatrix in="SourceAlpha" type="matrix" values="0 0 0 0 0 0 0 0 0 0 0 0 0 0 0 0 0 0 127 0" result="hardAlpha"/>
<feOffset dy="4"/>
<feGaussianBlur stdDeviation="2"/>
<feComposite in2="hardAlpha" operator="out"/>
<feColorMatrix type="matrix" values="0 0 0 0 0 0 0 0 0 0 0 0 0 0 0 0 0 0 0.25 0"/>
<feBlend mode="normal" in2="BackgroundImageFix" result="effect1_dropShadow_15_339"/>
<feBlend mode="normal" in="SourceGraphic" in2="effect1_dropShadow_15_339" result="shape"/>
</filter>
</defs>
</svg>
